# xmcd
#
# Track frame offsets: 
#        150
#        21839
#        45972
#        62972
#        87630
#        108672
#        128848
#        151004
#        175387
#
# Disc length: 2606 seconds
#
# Revision: 1
# Processed by: cddbd v1.5.2PL0 Copyright (c) Steve Scherf et al.
# Submitted via: ExactAudioCopy v1.0b3
#
DISCID=720a2c09
DTITLE=John 'Broadway' Tucker - Impromptu Blue
DYEAR=2000
DGENRE=Blues
TTITLE0=The Woman I Love
TTITLE1=As Years Go Passing By
TTITLE2=I'm A Jealous Man
TTITLE3=Straighten It Out
TTITLE4=Help Me
TTITLE5=(If Loving You Is Wrong) I Don't Want To Be Right
TTITLE6=Lonesome Whistle Blues
TTITLE7=Tin Pan Alley
TTITLE8=Sometimey Woman
EXTD=
EXTT0=
EXTT1=
EXTT2=
EXTT3=
EXTT4=
EXTT5=
EXTT6=
EXTT7=
EXTT8=
PLAYORDER=
